<?xml version="1.0" encoding="iso-8859-1"?>
<!-- Generator: Adobe Illustrator 19.0.0, SVG Export Plug-In . SVG Version: 6.00 Build 0)  -->
<svg version="1.1" id="Capa_1" xmlns="http://www.w3.org/2000/svg" xmlns:xlink="http://www.w3.org/1999/xlink" x="0px" y="0px"
	 viewBox="0 0 512 512" style="enable-background:new 0 0 512 512;" xml:space="preserve">
<g>
	<g>
		<circle cx="91" cy="256" r="91"/>
	</g>
</g>
<g>
	<g>
		<path d="M243.872,182.372v36.539c0,8.55-5.13,13.77-12.689,13.77c-7.649,0-13.14-5.22-13.14-13.77v-36.539h-16.02v36.539
			c0,16.649,11.34,27.179,29.07,27.179c17.639,0,28.709-10.53,28.709-27.179v-36.539H243.872z"/>
	</g>
</g>
<g>
	<g>
		<path d="M286.752,199.202c0-3.06,2.79-4.59,6.93-4.59c5.13,0,13.499,2.7,20.159,6.57l6.029-12.51
			c-6.479-4.23-15.749-7.02-24.839-7.02c-15.119,0-25.108,7.379-25.108,18.989c0,22.319,33.298,15.659,33.298,26.819
			c0.001,3.6-3.149,5.49-8.189,5.49c-6.569,0-16.289-3.78-22.769-9.45l-6.21,12.33c7.47,6.12,18.27,10.08,28.799,10.08
			c14.039,0,25.199-6.66,25.199-19.259C320.051,203.882,286.752,210.091,286.752,199.202z"/>
	</g>
</g>
<g>
	<g>
		<path d="M364.913,182.371h-16.47l-27.179,62.998h16.47l4.59-11.609h27.538l4.5,11.609h17.1L364.913,182.371z M347.004,221.611
			l9.18-23.309l8.999,23.309H347.004z"/>
	</g>
</g>
<g>
	<g>
		<polygon points="202.023,266.54 202.023,279.5 220.833,279.5 219.833,329.627 235.853,329.627 236.853,279.5 255.842,279.5 
			255.842,266.54 		"/>
	</g>
</g>
<g>
	<g>
		<path d="M288.822,266.09c-19.439,0-34.02,13.59-34.02,31.949c0,18.449,13.58,32.309,33.02,32.309
			c19.528,0,35.108-13.95,35.108-32.309C322.931,279.77,308.351,266.09,288.822,266.09z M289.002,316.938
			c-9.63,0-17.819-8.19-17.819-18.809c0-10.62,8.1-18.629,17.819-18.629s17.459,8.01,17.459,18.629
			C306.461,308.748,298.722,316.938,289.002,316.938z"/>
	</g>
</g>
<g>
	<g>
		<path d="M357.981,266.63h-27.089l-1,62.998h26.459c20.249,0,35.108-12.87,35.108-31.499
			C391.46,279.41,377.78,266.63,357.981,266.63z M358.341,316.848h-11.43V279.41h10.71c10.17,0,17.55,7.649,17.55,18.809
			C375.171,309.288,368.15,316.848,358.341,316.848z"/>
	</g>
</g>
<g>
	<g>
		<path d="M434.612,266.63h-16.47l-27.179,62.998h16.47l4.59-11.609h27.538l4.5,11.609h17.1L434.612,266.63z M416.702,305.868
			l9.18-23.309l8.999,23.309H416.702z"/>
	</g>
</g>
<g>
	<g>
		<polygon points="495.98,266.63 481.132,294.079 465.922,266.63 449.902,266.63 473.212,309.738 473.212,329.627 489.142,329.627 
			489.142,309.288 512,266.63 		"/>
	</g>
</g>
<g>
</g>
<g>
</g>
<g>
</g>
<g>
</g>
<g>
</g>
<g>
</g>
<g>
</g>
<g>
</g>
<g>
</g>
<g>
</g>
<g>
</g>
<g>
</g>
<g>
</g>
<g>
</g>
<g>
</g>
</svg>
